<?xml version="1.0" encoding="UTF-8" standalone="no"?>
<!DOCTYPE svg PUBLIC "-//W3C//DTD SVG 1.1//EN" "http://www.w3.org/Graphics/SVG/1.1/DTD/svg11.dtd">
<svg width="100%" height="100%" viewBox="0 0 185 250" version="1.1" xmlns="http://www.w3.org/2000/svg" xmlns:xlink="http://www.w3.org/1999/xlink" xml:space="preserve" xmlns:serif="http://www.serif.com/" style="fill-rule:evenodd;clip-rule:evenodd;stroke-linejoin:round;stroke-miterlimit:2;">
    <g transform="matrix(0.430529,0,0,0.430529,-1601.61,-1726.72)">
        <path d="M3934.94,4010.69C4026.97,4064.78 4149.04,4061.16 4149.04,4061.16L4147.54,4330.44C4158.7,4437.92 3987.57,4557.35 3934.94,4591.38C3882.32,4557.35 3711.19,4437.92 3722.35,4330.44L3720.85,4061.16C3720.85,4061.16 3842.92,4064.78 3934.94,4010.69C3934.94,4010.69 3934.94,4010.69 3934.94,4010.69ZM4048.48,4205.2L4048.48,4231.27C4042.29,4232.45 4037.99,4234.29 4035.72,4236.85C4031.76,4241.33 4029.77,4251.38 4029.77,4267.02L4029.77,4368.49C4029.53,4375.93 4028.72,4383.36 4027.36,4390.8C4025.99,4398.24 4023.57,4405.3 4020.11,4411.99C4012.17,4427.11 4000.83,4438.59 3986.08,4446.39C3971.33,4454.2 3955.78,4459.1 3939.41,4461.08C3936.44,4461.57 3933.4,4461.88 3930.31,4462.01C3927.2,4462.13 3924.17,4462.2 3921.2,4462.2C3917.23,4462.2 3913.14,4462.01 3908.93,4461.64C3904.7,4461.27 3900.49,4460.71 3896.28,4459.97C3881.41,4456.99 3867.71,4451.1 3855.19,4442.3C3844.58,4434.84 3838.46,4424.48 3836.85,4411.23C3836.5,4408.78 3836.35,4406.31 3836.39,4403.82L3836.41,4403.82L3836.41,4403.82C3836.41,4394.15 3839.95,4385.84 3847.01,4378.9C3854.08,4371.96 3862.44,4368.49 3872.11,4368.49C3881.03,4368.49 3888.72,4371.52 3895.16,4377.6C3901.61,4383.67 3905.08,4391.17 3905.58,4400.1C3905.58,4402.57 3905.26,4404.93 3904.65,4407.16C3904.03,4409.4 3903.35,4411.5 3902.6,4413.48C3902.1,4414.47 3901.67,4415.4 3901.3,4416.27C3900.93,4417.14 3900.62,4417.95 3900.37,4418.69C3900.12,4419.93 3899.87,4421.11 3899.63,4422.23C3899.38,4423.34 3899.26,4424.39 3899.26,4425.38C3899.26,4428.85 3900.68,4431.52 3903.53,4433.38C3906.38,4435.24 3909.42,4436.54 3912.64,4437.28C3914.13,4437.78 3915.62,4438.08 3917.1,4438.21C3918.59,4438.34 3919.95,4438.4 3921.2,4438.4C3938.79,4438.4 3950.14,4432.76 3955.22,4421.48C3960.3,4410.19 3962.84,4397.25 3962.84,4382.62L3962.84,4267.02C3962.84,4251.38 3960.92,4241.33 3957.08,4236.85C3954.84,4234.25 3950.46,4232.39 3944.06,4231.22L3944.06,4205.2L4048.48,4205.2ZM3839.78,4355.71L3839.78,4181.71C3840.02,4174.27 3840.83,4166.84 3842.19,4159.4C3843.56,4151.97 3845.97,4144.9 3849.44,4138.2C3857.38,4123.09 3868.72,4111.62 3883.47,4103.81C3898.22,4096 3913.77,4091.11 3930.13,4089.12C3933.11,4088.63 3936.15,4088.32 3939.24,4088.19C3942.35,4088.07 3945.38,4088.01 3948.35,4088.01C3952.32,4088.01 3956.41,4088.19 3960.62,4088.56C3964.85,4088.93 3969.06,4089.49 3973.27,4090.24C3988.14,4093.21 4001.84,4099.1 4014.36,4107.9C4026.88,4116.7 4033.14,4129.53 4033.14,4146.39C4033.14,4156.05 4029.6,4164.36 4022.54,4171.3C4015.47,4178.24 4007.11,4181.71 3997.44,4181.71C3988.51,4181.71 3980.83,4178.68 3974.38,4172.6C3967.94,4166.53 3964.47,4159.03 3963.97,4150.11C3963.97,4147.63 3964.28,4145.27 3964.9,4143.04C3965.52,4140.81 3966.2,4138.7 3966.94,4136.72C3967.45,4135.73 3967.88,4134.8 3968.25,4133.93C3968.62,4133.07 3968.93,4132.26 3969.18,4131.51C3969.43,4130.27 3969.68,4129.09 3969.92,4127.98C3970.17,4126.86 3970.29,4125.81 3970.29,4124.82C3970.29,4121.35 3968.87,4118.68 3966.02,4116.82C3963.17,4114.96 3960.13,4113.66 3956.91,4112.92C3955.42,4112.43 3953.93,4112.12 3952.45,4111.99C3950.96,4111.87 3949.6,4111.81 3948.35,4111.81C3930.76,4111.81 3919.41,4117.44 3914.33,4128.72C3909.25,4140.01 3906.71,4152.96 3906.71,4167.58L3906.71,4357.33C3905.97,4356.76 3905.22,4356.2 3904.45,4355.66C3884.4,4341.51 3858.62,4343.52 3839.78,4355.71Z" style="fill:rgb(230,56,62);"/>
    </g>
</svg>
